<svg width="189" height="197" viewBox="0 0 189 197" fill="none" xmlns="http://www.w3.org/2000/svg">
<path d="M89.5895 14.775C89.5895 6.615 96.2411 -0.113419 104.309 1.10605C117.282 3.06681 129.784 7.60779 141.056 14.5149C156.544 24.0064 169.107 37.5963 177.354 53.7819C185.601 69.9676 189.211 88.1186 187.786 106.228C186.361 124.338 179.955 141.701 169.278 156.397C158.6 171.093 144.067 182.55 127.284 189.502C110.501 196.454 92.1227 198.629 74.1807 195.787C56.2388 192.946 39.4321 185.198 25.6189 173.4C15.5667 164.815 7.38476 154.328 1.51108 142.596C-2.14196 135.299 2.20169 126.894 9.96232 124.372V124.372C17.723 121.851 25.9307 126.217 30.045 133.264C33.9244 139.909 38.9065 145.888 44.8101 150.93C54.4794 159.188 66.244 164.612 78.8034 166.601C91.3627 168.59 104.228 167.068 115.976 162.201C127.724 157.335 137.897 149.315 145.371 139.028C152.845 128.74 157.329 116.586 158.327 103.91C159.325 91.233 156.797 78.5273 151.024 67.1974C145.252 55.8674 136.458 46.3545 125.616 39.7105C118.996 35.6539 111.77 32.7633 104.252 31.127C96.2786 29.3917 89.5895 22.935 89.5895 14.775V14.775Z" fill="url(#paint0_linear_201_85)"/>
<defs>
<linearGradient id="paint0_linear_201_85" x1="-9.08953" y1="82" x2="144.91" y2="178" gradientUnits="userSpaceOnUse">
<stop stop-color="#CE9FFC"/>
<stop offset="1" stop-color="#7367F0"/>
</linearGradient>
</defs>
</svg>
